<?xml version="1.0" encoding="utf-8"?>
<!-- Generator: Adobe Illustrator 24.3.0, SVG Export Plug-In . SVG Version: 6.00 Build 0)  -->
<svg version="1.1" id="Layer_1" xmlns="http://www.w3.org/2000/svg" xmlns:xlink="http://www.w3.org/1999/xlink" x="0px" y="0px"
	 viewBox="0 0 144 144" style="enable-background:new 0 0 144 144;" xml:space="preserve">
<style type="text/css">
	.st0{fill:#FFFFFF;}
</style>
<g>
	<g>
		<path class="st0" d="M106.59,143.99c0-20.56,0-41,0-61.51c5.68,0,11.31,0,17.06,0c0.77-7.1,1.54-14.14,2.32-21.3
			c-6.49,0-12.89,0-19.34,0c-0.04-0.33-0.09-0.56-0.09-0.78c0-3.54-0.02-7.08,0.05-10.62c0.02-1.1,0.17-2.22,0.45-3.28
			c0.69-2.63,2.83-4.09,6.13-4.15c3.78-0.07,7.56-0.03,11.34-0.04c0.35,0,0.7,0,1.11,0c0-7.08,0-14.05,0-21.16
			c-0.34,0-0.66,0-0.98,0c-5.97,0-11.94,0-17.9-0.01c-4.21-0.01-8.3,0.64-12.21,2.25c-6.09,2.51-9.76,7.15-11.66,13.33
			c-0.91,2.97-1.41,6.02-1.47,9.11c-0.09,4.77-0.07,9.54-0.06,14.3c0,0.8-0.18,1.08-1.04,1.07c-3.42-0.05-6.84-0.02-10.26-0.02
			c-0.32,0-0.65,0-1.03,0c0,7.11,0,14.14,0,21.3c4.07,0,8.13,0,12.25,0c0,20.56,0,40.99,0,61.48c-0.29,0.02-0.55,0.05-0.81,0.05
			c-20.27,0-40.55,0.02-60.82,0c-9.99-0.01-18.42-7.51-19.39-17.45c-0.37-3.74-0.19-7.55-0.19-11.32
			C0.03,87.63,0.04,60.04,0.04,32.45c0-4.41-0.02-8.82,0.01-13.23C0.12,9.62,7.76,1.11,17.34,0.24c3.99-0.36,8.03-0.2,12.04-0.21
			c31.58-0.01,63.16-0.01,94.74,0c9.95,0,18,6.81,19.63,16.61c0.2,1.2,0.24,2.45,0.24,3.67c0.01,32.54,0.01,65.08,0,97.62
			c0,2.97,0.08,5.95-0.2,8.89c-0.8,8.66-8.42,16.31-17.08,16.94c-5.01,0.36-10.07,0.17-15.11,0.22
			C109.96,144,108.32,143.99,106.59,143.99z"/>
	</g>
</g>
</svg>
